<?xml version="1.0" encoding="UTF-8" standalone="no"?>
<!-- Created with Inkscape (http://www.inkscape.org/) -->

<svg
   xmlns:dc="http://purl.org/dc/elements/1.1/"
   xmlns:cc="http://creativecommons.org/ns#"
   xmlns:rdf="http://www.w3.org/1999/02/22-rdf-syntax-ns#"
   xmlns:svg="http://www.w3.org/2000/svg"
   xmlns="http://www.w3.org/2000/svg"
   xmlns:sodipodi="http://sodipodi.sourceforge.net/DTD/sodipodi-0.dtd"
   xmlns:inkscape="http://www.inkscape.org/namespaces/inkscape"
   width="920"
   height="680"
   viewBox="0 0 920 680"
   id="svg2"
   version="1.1"
   inkscape:version="0.91 r13725"
   sodipodi:docname="promo_large.svg"
   inkscape:export-filename="/home/pcon/devel/devboards/assets/promo_small.png"
   inkscape:export-xdpi="90"
   inkscape:export-ydpi="90">
  <defs
     id="defs4" />
  <sodipodi:namedview
     id="base"
     pagecolor="#ffffff"
     bordercolor="#666666"
     borderopacity="1.0"
     inkscape:pageopacity="0.0"
     inkscape:pageshadow="2"
     inkscape:zoom="0.7"
     inkscape:cx="9.0522551"
     inkscape:cy="299.53319"
     inkscape:document-units="px"
     inkscape:current-layer="layer1"
     showgrid="false"
     units="px"
     inkscape:window-width="1920"
     inkscape:window-height="1059"
     inkscape:window-x="0"
     inkscape:window-y="0"
     inkscape:window-maximized="1" />
  <metadata
     id="metadata7">
    <rdf:RDF>
      <cc:Work
         rdf:about="">
        <dc:format>image/svg+xml</dc:format>
        <dc:type
           rdf:resource="http://purl.org/dc/dcmitype/StillImage" />
        <dc:title></dc:title>
      </cc:Work>
    </rdf:RDF>
  </metadata>
  <g
     inkscape:label="Layer 1"
     inkscape:groupmode="layer"
     id="layer1"
     transform="translate(0,-372.36216)">
    <rect
       style="color:#000000;clip-rule:nonzero;display:inline;overflow:visible;visibility:visible;opacity:1;isolation:auto;mix-blend-mode:normal;color-interpolation:sRGB;color-interpolation-filters:linearRGB;solid-color:#000000;solid-opacity:1;fill:#009ddc;fill-opacity:1;fill-rule:nonzero;stroke:none;stroke-width:5;stroke-linecap:round;stroke-linejoin:round;stroke-miterlimit:4;stroke-dasharray:none;stroke-dashoffset:0;stroke-opacity:1;marker:none;color-rendering:auto;image-rendering:auto;shape-rendering:auto;text-rendering:auto;enable-background:accumulate"
       id="rect4208"
       width="920"
       height="680"
       x="0"
       y="372.36215"
       rx="0"
       ry="0" />
    <path
       style="fill:none;fill-rule:evenodd;stroke:#2a8bb2;stroke-width:20;stroke-linecap:round;stroke-linejoin:round;stroke-miterlimit:4;stroke-dasharray:none;stroke-opacity:1"
       d="m 3.0842788,748.43338 109.9974912,0 73.77886,-229.14977 10.73145,398.89038 84.51029,-299.87503 38.90157,155.59544 84.51031,-267.34139 67.07175,316.84906 12.07288,-171.15503 53.65736,110.33136 38.90155,-154.181 93.90031,251.78183 28.17011,-328.16509 44.26727,260.26884 34.87732,-101.84432 139.50906,0"
       id="path4187"
       inkscape:connector-curvature="0" />
    <path
       style="fill:#e6e6e6;fill-opacity:1;stroke:#808080;stroke-width:16;stroke-opacity:1"
       d="m 399.25314,829.67401 c 77.231,0 139.85529,64.73644 139.85529,144.61279 0,19.05085 -3.59127,37.1844 -10.06334,53.8417 35.31224,21.4757 59.0072,61.1007 59.0072,106.5322 0,68.2579 -53.50304,123.6744 -119.50039,123.6744 -8.54126,0 -16.89569,-1.0003 -24.92937,-2.7607 -20.96207,52.5186 -70.98584,89.5055 -129.33496,89.5055 -50.73678,0 -95.21969,-27.8961 -119.72904,-69.718 -16.98041,7.5807 -35.67735,11.8494 -55.34763,11.8494 -48.12359,0 -90.567797,-25.1143 -115.726928,-63.3901 -3.215677,0.2017 -6.453886,0.2313 -9.720107,0.2313 -85.656395,0 -155.178815,-71.7839 -155.178815,-160.3738 0,-88.59 69.52242,-160.37401 155.178815,-160.37401 23.023761,0 44.849418,5.18743 64.495692,14.49605 24.510123,-41.82155 68.992333,-69.71809 119.729463,-69.71809 35.32973,0 67.55392,13.54513 92.16989,35.89439 25.62673,-33.09292 64.91128,-54.30171 109.09423,-54.30171 z"
       id="path4184-1"
       inkscape:connector-curvature="0"
       clip-path="none" />
    <text
       xml:space="preserve"
       style="font-style:normal;font-variant:normal;font-weight:normal;font-stretch:normal;font-size:92.15042877px;line-height:100%;font-family:FontAwesome;-inkscape-font-specification:FontAwesome;text-align:end;letter-spacing:0px;word-spacing:0px;text-anchor:end;fill:#000000;fill-opacity:1;stroke:none;stroke-width:1px;stroke-linecap:butt;stroke-linejoin:miter;stroke-opacity:1"
       x="887.83234"
       y="698.76996"
       id="text4189"
       sodipodi:linespacing="100%"><tspan
         sodipodi:role="line"
         id="tspan4191"
         x="887.83234"
         y="698.76996"
         style="font-style:normal;font-variant:normal;font-weight:normal;font-stretch:normal;font-family:Interstate-Black;-inkscape-font-specification:Interstate-Black;fill:#ffffff">DevBoard</tspan><tspan
         sodipodi:role="line"
         x="887.83234"
         y="790.92041"
         id="tspan4193"
         style="font-style:normal;font-variant:normal;font-weight:normal;font-stretch:normal;font-family:Interstate-Black;-inkscape-font-specification:Interstate-Black;fill:#ffffff">Monitor</tspan></text>
  </g>
</svg>
